<?xml version="1.0" standalone="no"?>
<!DOCTYPE svg PUBLIC "-//W3C//DTD SVG 20010904//EN"
 "http://www.w3.org/TR/2001/REC-SVG-20010904/DTD/svg10.dtd">
<svg version="1.0" xmlns="http://www.w3.org/2000/svg"
 width="1024.000000pt" height="1024.000000pt" viewBox="0 0 1024.000000 1024.000000"
 preserveAspectRatio="xMidYMid meet">
<metadata>
Created by potrace 1.11, written by Peter Selinger 2001-2013
</metadata>
<g transform="translate(0.000000,1024.000000) scale(0.100000,-0.100000)"
fill="#000000" stroke="none">
<path d="M0 5120 l0 -5120 5120 0 5120 0 0 5120 0 5120 -5120 0 -5120 0 0
-5120z m5312 3428 c22 -17 43 -46 54 -73 16 -43 16 -49 0 -105 -15 -57 -27
-104 -63 -245 -8 -33 -21 -85 -28 -115 -8 -30 -23 -91 -34 -135 -19 -79 -98
-395 -126 -507 -8 -32 -22 -85 -30 -118 -25 -99 -46 -183 -55 -218 -6 -23 -5
-35 3 -38 7 -2 262 -3 567 -2 l554 3 8 30 c4 17 21 89 38 160 17 72 37 155 45
185 7 30 21 83 29 118 9 34 23 88 31 120 8 31 51 206 95 387 138 562 128 532
195 565 40 19 64 20 577 20 l535 0 34 -23 c43 -29 79 -82 79 -117 0 -28 -90
-405 -155 -645 -7 -27 -29 -115 -49 -195 -19 -80 -60 -246 -90 -369 -30 -124
-53 -228 -50 -233 3 -4 329 -8 724 -8 l719 0 34 -33 c60 -56 64 -102 23 -257
-10 -36 -24 -91 -32 -122 -19 -76 -42 -170 -59 -238 -8 -30 -35 -140 -61 -245
-73 -301 -78 -315 -124 -360 l-41 -40 -758 -3 -759 -2 -6 -23 c-3 -12 -24 -94
-46 -182 -23 -88 -46 -178 -52 -200 -6 -22 -14 -56 -18 -75 -5 -19 -42 -170
-84 -335 -42 -165 -76 -306 -76 -312 0 -10 151 -13 722 -13 l721 0 44 -45 c23
-25 46 -57 49 -71 6 -23 -43 -242 -111 -499 -8 -27 -21 -79 -30 -115 -9 -36
-23 -90 -31 -120 -7 -30 -30 -124 -51 -208 -33 -138 -41 -158 -74 -195 l-37
-42 -768 -5 -767 -5 -24 -100 c-13 -55 -53 -219 -89 -365 -237 -966 -240 -977
-256 -1021 -13 -35 -55 -74 -97 -88 -44 -14 -1030 -16 -1080 -1 -81 23 -132
112 -111 193 6 23 18 68 26 100 8 31 20 83 28 115 8 31 22 89 31 127 18 79 40
166 60 240 7 28 36 145 64 260 28 116 58 236 66 268 8 31 21 83 29 115 8 31
19 76 25 98 6 23 11 46 11 53 0 8 -149 11 -560 11 l-560 0 -9 -23 c-5 -12 -18
-62 -30 -112 -12 -49 -28 -116 -36 -147 -25 -97 -43 -170 -60 -243 -9 -38 -21
-88 -27 -110 -6 -22 -14 -56 -18 -75 -4 -19 -28 -114 -52 -210 -25 -96 -67
-265 -94 -375 -44 -180 -52 -204 -82 -237 -19 -21 -50 -42 -70 -48 -23 -6
-233 -10 -546 -10 -496 0 -511 1 -553 21 -53 26 -84 68 -90 122 -3 31 41 224
170 737 96 382 173 698 170 703 -2 4 -323 7 -712 7 l-708 0 -34 23 c-44 29
-79 82 -79 119 0 28 23 128 115 488 9 36 23 90 30 120 26 105 46 185 61 236 8
28 14 57 14 64 0 8 12 52 26 99 19 62 35 94 59 118 l33 33 764 0 764 0 138
553 c76 303 140 560 142 570 5 16 -33 17 -689 17 -382 0 -709 3 -726 6 -43 9
-108 74 -116 117 -6 30 38 231 100 462 13 48 30 114 62 240 8 33 21 85 28 115
8 30 28 109 44 175 27 107 34 124 65 153 l36 32 760 0 760 0 10 23 c5 12 29
105 54 207 95 390 207 847 222 905 9 33 22 87 30 120 9 33 22 83 30 111 8 28
14 58 14 66 0 24 37 102 57 121 10 9 30 20 43 26 16 6 224 9 571 8 l546 -2 35
-27z"/>
<path d="M4697 5683 c-7 -14 -41 -147 -143 -553 -25 -102 -55 -221 -65 -265
-26 -106 -47 -189 -64 -249 -8 -27 -12 -53 -9 -58 3 -4 257 -8 564 -8 l559 0
15 54 c9 30 16 60 16 68 0 8 6 34 14 59 14 48 34 123 46 179 4 19 22 89 39
155 49 188 60 231 75 293 30 120 48 189 62 238 8 28 14 60 14 72 l0 22 -559 0
c-308 0 -562 -3 -564 -7z"/>
</g>
</svg>
